<svg width="69" height="28" viewBox="0 0 69 28" fill="none" xmlns="http://www.w3.org/2000/svg">
<path d="M21.3227 27.2172C13.7913 27.0936 7.12866 24.6149 1.42261 19.5436L1.38908 19.5127C1.17668 19.3143 0.849295 19.1061 1.07766 18.7743C1.31721 18.4149 1.63661 18.6816 1.90171 18.8264C2.84234 19.3143 3.7654 19.851 4.722 20.3081C9.07916 22.3666 13.7598 23.6232 18.5472 24.0196C25.0022 24.5758 31.2001 23.5203 37.184 21.0302C37.2984 20.9798 37.4164 20.9385 37.537 20.9066C37.8787 20.822 38.1758 20.9066 38.3259 21.24C38.3607 21.3078 38.3817 21.3821 38.3879 21.4584C38.3941 21.5346 38.3853 21.6114 38.3619 21.6841C38.3386 21.7568 38.3012 21.8241 38.2519 21.8819C38.2027 21.9397 38.1426 21.9869 38.0752 22.0207C36.9573 22.7282 35.8585 23.5008 34.6784 24.096C30.4831 26.2088 26.0067 27.1602 21.3227 27.2172Z" fill="#6EB635"/>
<path d="M39.1659 17.6992C39.8989 17.8261 40.6303 17.9432 41.3601 18.0814C41.8121 18.1676 42.0165 18.4994 41.9989 18.9402C41.9382 21.349 41.1637 23.4633 39.4821 25.1955C39.4233 25.2698 39.3477 25.3284 39.2617 25.3663C39.1042 25.4053 38.944 25.4325 38.7826 25.4476C38.7519 25.2907 38.7454 25.1299 38.7634 24.971C39.1435 23.7658 39.5907 22.5818 39.9212 21.3652C40.3077 19.9421 40.0155 19.5094 38.559 19.4655C37.382 19.4314 36.2003 19.594 35.0233 19.6444C34.7822 19.6278 34.544 19.5808 34.3142 19.5046C34.4627 19.3045 34.5681 19.0362 34.7662 18.9093C36.106 18.0554 37.5928 17.7887 39.1659 17.6992Z" fill="#6EB635"/>
<path d="M57.6125 10.2383L62.1125 14.7813L66.6125 10.2383L68.4125 11.1469L62.1125 17.5072L55.8125 11.1469L57.6125 10.2383Z" fill="#86BA40"/>
<path d="M11.8879 14.0001V7.79005C11.8879 7.23805 11.7799 6.84205 11.5639 6.60205C11.3479 6.36205 10.9939 6.24205 10.5019 6.24205C10.1299 6.24205 9.7339 6.30805 9.3139 6.44005C8.8939 6.56005 8.5279 6.71605 8.2159 6.90805V14.0001H6.0919V7.79005C6.0919 7.23805 5.9839 6.84205 5.7679 6.60205C5.5519 6.36205 5.1979 6.24205 4.7059 6.24205C4.3579 6.24205 3.9799 6.30205 3.5719 6.42205C3.1759 6.53005 2.7919 6.69205 2.4199 6.90805V14.0001H0.295898V4.83805H2.0599L2.2579 5.75605C2.8579 5.34805 3.4219 5.04805 3.9499 4.85605C4.4899 4.66405 5.0299 4.56805 5.5699 4.56805C6.6859 4.56805 7.4539 4.98205 7.8739 5.81005C9.0739 4.98205 10.2259 4.56805 11.3299 4.56805C12.1819 4.56805 12.8419 4.80205 13.3099 5.27005C13.7779 5.72605 14.0119 6.39205 14.0119 7.26805V14.0001H11.8879Z" fill="#6EB635"/>
<path d="M18.0497 9.93205C18.0857 10.8441 18.3377 11.5161 18.8057 11.9481C19.2857 12.3681 20.0177 12.5781 21.0017 12.5781C21.8897 12.5781 22.8497 12.4101 23.8817 12.0741V13.5681C23.4737 13.7841 22.9877 13.9521 22.4237 14.0721C21.8717 14.2041 21.2957 14.2701 20.6957 14.2701C19.1837 14.2701 18.0377 13.8621 17.2577 13.0461C16.4777 12.2301 16.0877 11.0421 16.0877 9.48205C16.0877 7.93405 16.4657 6.72805 17.2217 5.86405C17.9897 5.00005 19.0577 4.56805 20.4257 4.56805C21.6017 4.56805 22.5017 4.89205 23.1257 5.54005C23.7617 6.17605 24.0797 7.08205 24.0797 8.25805C24.0797 8.88205 24.0257 9.44005 23.9177 9.93205H18.0497ZM20.3357 6.11605C19.6877 6.11605 19.1597 6.33205 18.7517 6.76405C18.3437 7.19605 18.1097 7.77805 18.0497 8.51005H22.2077V8.36605C22.2077 7.63405 22.0457 7.07605 21.7217 6.69205C21.4097 6.30805 20.9477 6.11605 20.3357 6.11605Z" fill="#6EB635"/>
<path d="M31.4813 14.0001L31.3193 13.1181C30.8993 13.4781 30.4313 13.7601 29.9153 13.9641C29.4113 14.1681 28.9073 14.2701 28.4033 14.2701C27.5633 14.2701 26.8793 14.0181 26.3513 13.5141C25.8353 13.0101 25.5773 12.3561 25.5773 11.5521C25.5773 10.6641 25.8953 9.95605 26.5313 9.42805C27.1793 8.90005 28.0433 8.63605 29.1233 8.63605C29.7593 8.63605 30.4553 8.72605 31.2113 8.90605V7.84405C31.2113 7.23205 31.0793 6.80605 30.8153 6.56605C30.5513 6.32605 30.0893 6.20605 29.4293 6.20605C28.4933 6.20605 27.4193 6.40405 26.2073 6.80005V5.30605C26.6513 5.07805 27.1913 4.89805 27.8273 4.76605C28.4753 4.63405 29.1233 4.56805 29.7713 4.56805C30.9473 4.56805 31.8113 4.80805 32.3633 5.28805C32.9273 5.76805 33.2093 6.51805 33.2093 7.53805V14.0001H31.4813ZM28.9973 12.7581C29.3453 12.7581 29.7113 12.6861 30.0953 12.5421C30.4793 12.3861 30.8513 12.1701 31.2113 11.8941V10.1661C30.5753 10.0341 30.0113 9.96805 29.5193 9.96805C28.2713 9.96805 27.6473 10.4541 27.6473 11.4261C27.6473 11.8461 27.7673 12.1761 28.0073 12.4161C28.2473 12.6441 28.5773 12.7581 28.9973 12.7581Z" fill="#6EB635"/>
<path d="M39.333 13.8561C38.889 14.0241 38.415 14.1081 37.911 14.1081C37.203 14.1081 36.663 13.9101 36.291 13.5141C35.931 13.1061 35.751 12.5181 35.751 11.7501V0.680054H37.875V11.5881C37.875 11.8881 37.929 12.1041 38.037 12.2361C38.157 12.3681 38.349 12.4341 38.613 12.4341C38.829 12.4341 39.069 12.4161 39.333 12.3801V13.8561Z" fill="#6EB635"/>
<path d="M45.305 11.5161C45.305 11.2521 45.221 11.0421 45.053 10.8861C44.885 10.7181 44.573 10.5501 44.117 10.3821L42.623 9.80605C41.279 9.29005 40.607 8.45005 40.607 7.28605C40.607 6.44605 40.919 5.78605 41.543 5.30605C42.167 4.81405 43.001 4.56805 44.045 4.56805C45.041 4.56805 45.941 4.76005 46.745 5.14405V6.63805C45.809 6.33805 44.951 6.18805 44.171 6.18805C43.619 6.18805 43.211 6.27205 42.947 6.44005C42.695 6.59605 42.569 6.84805 42.569 7.19605C42.569 7.46005 42.659 7.67605 42.839 7.84405C43.031 8.00005 43.367 8.17405 43.847 8.36605L45.233 8.90605C45.953 9.18205 46.469 9.51205 46.781 9.89605C47.105 10.2801 47.267 10.7661 47.267 11.3541C47.267 12.2541 46.943 12.9681 46.295 13.4961C45.647 14.0121 44.747 14.2701 43.595 14.2701C43.031 14.2701 42.479 14.2101 41.939 14.0901C41.399 13.9701 40.925 13.8021 40.517 13.5861V12.0921C41.669 12.4641 42.689 12.6501 43.577 12.6501C44.177 12.6501 44.615 12.5601 44.891 12.3801C45.167 12.1881 45.305 11.9001 45.305 11.5161Z" fill="#6EB635"/>
</svg>
