<svg width="28" height="30" viewBox="0 0 28 30" fill="none" xmlns="http://www.w3.org/2000/svg">
<path fill-rule="evenodd" clip-rule="evenodd" d="M14 0C12.7063 0 10.5444 0.496875 8.51001 1.05C6.42876 1.6125 4.33063 2.27812 3.09688 2.68125C2.58106 2.8516 2.12374 3.164 1.77748 3.58256C1.43122 4.00113 1.21005 4.50889 1.13939 5.0475C0.0218851 13.4419 2.61501 19.6631 5.76126 23.7787C7.09548 25.5393 8.68631 27.0897 10.4806 28.3781C11.2044 28.89 11.8756 29.2819 12.4456 29.55C12.9706 29.7975 13.535 30 14 30C14.465 30 15.0275 29.7975 15.5544 29.55C16.2415 29.216 16.8989 28.824 17.5194 28.3781C19.3137 27.0897 20.9046 25.5393 22.2388 23.7787C25.385 19.6631 27.9781 13.4419 26.8606 5.0475C26.7901 4.50863 26.569 4.00058 26.2227 3.58169C25.8765 3.1628 25.4191 2.85006 24.9031 2.67937C23.1121 2.09215 21.3072 1.54824 19.49 1.04813C17.4556 0.49875 15.2938 0 14 0ZM14 9.375C14.6642 9.37401 15.3073 9.60812 15.8155 10.0359C16.3236 10.4636 16.6639 11.0574 16.7762 11.712C16.8885 12.3667 16.7655 13.0399 16.4289 13.6125C16.0924 14.1852 15.5641 14.6202 14.9375 14.8406L15.6594 18.5719C15.6856 18.7076 15.6816 18.8474 15.6475 18.9814C15.6133 19.1153 15.55 19.2401 15.462 19.3467C15.3741 19.4533 15.2636 19.5392 15.1386 19.5981C15.0135 19.657 14.877 19.6875 14.7388 19.6875H13.2613C13.1232 19.6873 12.9869 19.6565 12.8621 19.5975C12.7373 19.5384 12.627 19.4526 12.5392 19.346C12.4515 19.2394 12.3883 19.1147 12.3543 18.9809C12.3203 18.8471 12.3163 18.7074 12.3425 18.5719L13.0625 14.8406C12.4359 14.6202 11.9076 14.1852 11.5711 13.6125C11.2345 13.0399 11.1115 12.3667 11.2238 11.712C11.3361 11.0574 11.6764 10.4636 12.1846 10.0359C12.6927 9.60812 13.3358 9.37401 14 9.375Z" fill="#0F1111"/>
</svg>
