<svg width="18" height="24" viewBox="0 0 18 24" fill="none" xmlns="http://www.w3.org/2000/svg">
<path d="M4.125 11.35C4.125 11.1345 4.2106 10.9278 4.36298 10.7755C4.51535 10.6231 4.72201 10.5375 4.9375 10.5375H9.8125C10.028 10.5375 10.2347 10.6231 10.387 10.7755C10.5394 10.9278 10.625 11.1345 10.625 11.35C10.625 11.5655 10.5394 11.7721 10.387 11.9245C10.2347 12.0769 10.028 12.1625 9.8125 12.1625H4.9375C4.72201 12.1625 4.51535 12.0769 4.36298 11.9245C4.2106 11.7721 4.125 11.5655 4.125 11.35ZM4.125 16.225C4.125 16.0095 4.2106 15.8028 4.36298 15.6505C4.51535 15.4981 4.72201 15.4125 4.9375 15.4125H9.8125C10.028 15.4125 10.2347 15.4981 10.387 15.6505C10.5394 15.8028 10.625 16.0095 10.625 16.225C10.625 16.4405 10.5394 16.6471 10.387 16.7995C10.2347 16.9519 10.028 17.0375 9.8125 17.0375H4.9375C4.72201 17.0375 4.51535 16.9519 4.36298 16.7995C4.2106 16.6471 4.125 16.4405 4.125 16.225ZM13.0625 12.1625C13.278 12.1625 13.4847 12.0769 13.637 11.9245C13.7894 11.7721 13.875 11.5655 13.875 11.35C13.875 11.1345 13.7894 10.9278 13.637 10.7755C13.4847 10.6231 13.278 10.5375 13.0625 10.5375C12.847 10.5375 12.6403 10.6231 12.488 10.7755C12.3356 10.9278 12.25 11.1345 12.25 11.35C12.25 11.5655 12.3356 11.7721 12.488 11.9245C12.6403 12.0769 12.847 12.1625 13.0625 12.1625ZM13.0625 17.0375C13.278 17.0375 13.4847 16.9519 13.637 16.7995C13.7894 16.6471 13.875 16.4405 13.875 16.225C13.875 16.0095 13.7894 15.8028 13.637 15.6505C13.4847 15.4981 13.278 15.4125 13.0625 15.4125C12.847 15.4125 12.6403 15.4981 12.488 15.6505C12.3356 15.8028 12.25 16.0095 12.25 16.225C12.25 16.4405 12.3356 16.6471 12.488 16.7995C12.6403 16.9519 12.847 17.0375 13.0625 17.0375ZM4.26313 2.41248C4.43122 1.93704 4.74263 1.52543 5.15445 1.2344C5.56627 0.943358 6.05822 0.787212 6.5625 0.787476H11.4375C11.9418 0.787212 12.4337 0.943358 12.8455 1.2344C13.2574 1.52543 13.5688 1.93704 13.7369 2.41248H14.6875C15.334 2.41248 15.954 2.66928 16.4111 3.1264C16.8682 3.58352 17.125 4.20351 17.125 4.84998V21.1C17.125 21.7464 16.8682 22.3664 16.4111 22.8235C15.954 23.2807 15.334 23.5375 14.6875 23.5375H3.3125C2.66603 23.5375 2.04605 23.2807 1.58893 22.8235C1.13181 22.3664 0.875 21.7464 0.875 21.1V4.84998C0.875 4.20351 1.13181 3.58352 1.58893 3.1264C2.04605 2.66928 2.66603 2.41248 3.3125 2.41248H4.26313ZM6.5625 2.41248C6.34701 2.41248 6.14035 2.49808 5.98798 2.65045C5.8356 2.80283 5.75 3.00949 5.75 3.22498C5.75 3.44046 5.8356 3.64713 5.98798 3.7995C6.14035 3.95187 6.34701 4.03748 6.5625 4.03748H11.4375C11.653 4.03748 11.8597 3.95187 12.012 3.7995C12.1644 3.64713 12.25 3.44046 12.25 3.22498C12.25 3.00949 12.1644 2.80283 12.012 2.65045C11.8597 2.49808 11.653 2.41248 11.4375 2.41248H6.5625ZM4.26313 4.03748H3.3125C3.09701 4.03748 2.89035 4.12308 2.73798 4.27545C2.5856 4.42783 2.5 4.63449 2.5 4.84998V21.1C2.5 21.3155 2.5856 21.5221 2.73798 21.6745C2.89035 21.8269 3.09701 21.9125 3.3125 21.9125H14.6875C14.903 21.9125 15.1097 21.8269 15.262 21.6745C15.4144 21.5221 15.5 21.3155 15.5 21.1V4.84998C15.5 4.63449 15.4144 4.42783 15.262 4.27545C15.1097 4.12308 14.903 4.03748 14.6875 4.03748H13.7369C13.5688 4.51292 13.2574 4.92452 12.8455 5.21556C12.4337 5.50659 11.9418 5.66274 11.4375 5.66248H6.5625C6.05822 5.66274 5.56627 5.50659 5.15445 5.21556C4.74263 4.92452 4.43122 4.51292 4.26313 4.03748Z" fill="#4D9C2D"/>
</svg>
