<svg width="17" height="16" viewBox="0 0 17 16" fill="none" xmlns="http://www.w3.org/2000/svg">
<path d="M8.82467 15C6.95264 15 5.15728 14.2625 3.83355 12.9497C2.50983 11.637 1.76617 9.85652 1.76617 8C1.76617 6.14348 2.50983 4.36301 3.83355 3.05025C5.15728 1.7375 6.95264 1 8.82467 1C10.6967 1 12.4921 1.7375 13.8158 3.05025C15.1395 4.36301 15.8832 6.14348 15.8832 8C15.8832 9.85652 15.1395 11.637 13.8158 12.9497C12.4921 14.2625 10.6967 15 8.82467 15ZM8.82467 16C10.9641 16 13.016 15.1571 14.5288 13.6569C16.0416 12.1566 16.8915 10.1217 16.8915 8C16.8915 5.87827 16.0416 3.84344 14.5288 2.34315C13.016 0.842855 10.9641 0 8.82467 0C6.6852 0 4.63337 0.842855 3.12054 2.34315C1.60771 3.84344 0.757813 5.87827 0.757812 8C0.757813 10.1217 1.60771 12.1566 3.12054 13.6569C4.63337 15.1571 6.6852 16 8.82467 16V16Z" fill="#0F1111"/>
<path d="M6.05686 5.786C6.05547 5.81829 6.06077 5.85053 6.07242 5.88072C6.08406 5.91091 6.10181 5.93841 6.12457 5.96155C6.14733 5.98468 6.17463 6.00296 6.20477 6.01524C6.23492 6.02753 6.26728 6.03357 6.29987 6.033H7.13176C7.27092 6.033 7.38184 5.92 7.39999 5.783C7.49074 5.127 7.9445 4.649 8.7532 4.649C9.44493 4.649 10.0782 4.992 10.0782 5.817C10.0782 6.452 9.70106 6.744 9.10512 7.188C8.42649 7.677 7.88904 8.248 7.92736 9.175L7.93038 9.392C7.93144 9.45761 7.95847 9.52017 8.00563 9.5662C8.05279 9.61222 8.11631 9.63801 8.18247 9.638H9.00025C9.06711 9.638 9.13123 9.61166 9.1785 9.56478C9.22578 9.51789 9.25234 9.4543 9.25234 9.388V9.283C9.25234 8.565 9.52762 8.356 10.2708 7.797C10.8849 7.334 11.5252 6.82 11.5252 5.741C11.5252 4.23 10.2385 3.5 8.82984 3.5C7.55225 3.5 6.15265 4.09 6.05686 5.786V5.786ZM7.62687 11.549C7.62687 12.082 8.05542 12.476 8.64531 12.476C9.2594 12.476 9.6819 12.082 9.6819 11.549C9.6819 10.997 9.25839 10.609 8.6443 10.609C8.05542 10.609 7.62687 10.997 7.62687 11.549Z" fill="#0F1111"/>
</svg>
