<svg width="81" height="18" viewBox="0 0 81 18" fill="none" xmlns="http://www.w3.org/2000/svg">
<path d="M8.43941 2L10.1097 7.18237H15.5147L11.1419 10.3853L12.8122 15.5676L8.43941 12.3647L4.06663 15.5676L5.73688 10.3853L1.36411 7.18237H6.76916L8.43941 2Z" fill="#FFA41C" stroke="#D2803A" stroke-width="0.8"/>
<path d="M24.3183 2L25.9886 7.18237H31.3936L27.0208 10.3853L28.6911 15.5676L24.3183 12.3647L19.9455 15.5676L21.6158 10.3853L17.243 7.18237H22.6481L24.3183 2Z" fill="#FFA41C" stroke="#D2803A" stroke-width="0.8"/>
<path d="M40.1972 2L41.8675 7.18237H47.2725L42.8997 10.3853L44.57 15.5676L40.1972 12.3647L35.8244 15.5676L37.4947 10.3853L33.1219 7.18237H38.527L40.1972 2Z" fill="#FFA41C" stroke="#D2803A" stroke-width="0.8"/>
<path d="M56.0761 2L57.7464 7.18237H63.1514L58.7786 10.3853L60.4489 15.5676L56.0761 12.3647L51.7034 15.5676L53.3736 10.3853L49.0008 7.18237H54.4059L56.0761 2Z" fill="#FFA41C" stroke="#D2803A" stroke-width="0.8"/>
<path d="M71.955 2L73.6253 7.30402H79.0303L74.6576 10.5821L76.3278 15.8861L71.955 12.608L67.5823 15.8861L69.2525 10.5821L64.8797 7.30402H70.2848L71.955 2Z" fill="white" stroke="#D2803A" stroke-width="0.8"/>
</svg>
